<?xml version="1.0" encoding="utf-8"?>
<!-- Generator: Adobe Illustrator 16.0.3, SVG Export Plug-In . SVG Version: 6.00 Build 0)  -->
<!DOCTYPE svg PUBLIC "-//W3C//DTD SVG 1.1//EN" "http://www.w3.org/Graphics/SVG/1.1/DTD/svg11.dtd">
<svg version="1.1" xmlns="http://www.w3.org/2000/svg" xmlns:xlink="http://www.w3.org/1999/xlink" x="0px" y="0px" width="1360px"
	 height="1080px" viewBox="0 0 1360 1080" enable-background="new 0 0 1360 1080" xml:space="preserve">
<g id="bg" display="none">
	<rect display="inline" fill="#1A171B" width="1360" height="1080"/>
</g>
<g id="Livello_1">
	<polygon fill="#FFFFFF" points="601.902,368.377 601.973,368.499 680,503.649 758.049,368.463 762.375,360.969 680.037,218.277 
		597.592,361.08 601.852,368.291 	"/>
	<polygon fill="#FFFFFF" points="970.439,721.337 875.068,556.149 779.699,390.963 697.32,533.65 701.65,541.15 801.35,713.837 
		805.68,721.337 	"/>
	<polygon fill="#FFFFFF" points="580.301,390.963 389.561,721.337 580.301,721.337 771.039,721.337 675.67,556.15 	"/>
	<g>
		<path fill="#FFFFFF" d="M283.255,869.582c-1.935-4.445-4.205-9.907-6.815-16.385c-2.61-6.476-5.317-13.34-8.12-20.59h-39.73
			c-2.805,7.25-5.51,14.114-8.12,20.59c-2.61,6.478-4.882,11.939-6.815,16.385h-9.86c1.45-3.48,3.383-8.095,5.8-13.848
			c2.415-5.75,5.025-12.058,7.83-18.922c2.802-6.863,5.703-13.993,8.7-21.388c2.995-7.396,5.896-14.522,8.7-21.388
			c2.803-6.862,5.388-13.146,7.757-18.85c2.368-5.703,4.325-10.343,5.873-13.921c1.45,3.578,3.383,8.218,5.8,13.921
			c2.416,5.704,5.025,11.987,7.83,18.85c2.803,6.865,5.728,13.992,8.772,21.388c3.045,7.395,5.968,14.524,8.772,21.388
			c2.803,6.864,5.388,13.172,7.758,18.922c2.368,5.753,4.325,10.367,5.873,13.848H283.255z M247.005,786.642
			c-1.935,4.545-4.229,10.103-6.887,16.676c-2.66,6.574-5.39,13.484-8.192,20.734h33.06c-2.9-7.25-5.655-14.16-8.265-20.734
			c-2.61-6.573-4.882-12.131-6.815-16.676c-0.195-0.385-0.435-1.037-0.725-1.957c-0.29-0.918-0.533-1.763-0.725-2.537
			c-0.195,0.774-0.435,1.619-0.725,2.537C247.44,785.604,247.198,786.257,247.005,786.642z"/>
		<path fill="#FFFFFF" d="M314.109,869.582h-7.975v-111.07h7.975V869.582z"/>
		<path fill="#FFFFFF" d="M390.494,840.582c0,4.255-0.75,8.218-2.248,11.89c-1.5,3.675-3.602,6.865-6.307,9.57
			c-2.708,2.707-5.897,4.835-9.57,6.38c-3.675,1.545-7.685,2.32-12.035,2.32c-5.415,0-10.223-1.255-14.428-3.771
			c-4.205-2.513-7.13-5.604-8.772-9.279c0,0.967,0.022,1.909,0.073,2.827c0.047,0.92,0.072,1.91,0.072,2.973v6.09h-7.975v-111.07
			h7.975v65.25c1.835-3.575,4.785-6.717,8.845-9.425c4.06-2.705,8.893-4.06,14.5-4.06c4.35,0,8.337,0.75,11.962,2.247
			c3.625,1.5,6.765,3.577,9.425,6.235c2.658,2.659,4.735,5.85,6.235,9.569C389.745,832.052,390.494,836.137,390.494,840.582z
			 M381.939,840.582c0-3.19-0.533-6.162-1.595-8.918c-1.065-2.755-2.587-5.122-4.567-7.104c-1.982-1.98-4.327-3.553-7.033-4.713
			c-2.707-1.159-5.655-1.739-8.845-1.739s-6.163,0.58-8.917,1.739c-2.755,1.16-5.147,2.732-7.178,4.713
			c-2.03,1.982-3.625,4.327-4.785,7.032c-1.16,2.708-1.74,5.655-1.74,8.846c0,3.189,0.58,6.14,1.74,8.845
			c1.16,2.707,2.755,5.075,4.785,7.104c2.03,2.03,4.423,3.625,7.178,4.785s5.728,1.74,8.917,1.74s6.138-0.58,8.845-1.74
			c2.706-1.16,5.05-2.755,7.033-4.785c1.98-2.029,3.502-4.397,4.567-7.104C381.407,846.577,381.939,843.677,381.939,840.582z"/>
		<path fill="#FFFFFF" d="M454.148,862.622c-2.805,2.515-6.09,4.495-9.86,5.945c-3.77,1.449-7.685,2.175-11.745,2.175
			c-4.255,0-8.242-0.798-11.962-2.393c-3.723-1.595-6.96-3.745-9.715-6.452c-2.755-2.706-4.93-5.896-6.525-9.57
			c-1.595-3.673-2.393-7.588-2.393-11.745c0-4.155,0.798-8.095,2.393-11.817c1.595-3.721,3.77-6.96,6.525-9.715
			c2.755-2.755,5.968-4.931,9.643-6.525c3.673-1.595,7.588-2.393,11.745-2.393c6.38,0,11.913,1.935,16.603,5.8
			c4.688,3.868,8.143,8.798,10.368,14.79c-3.288,1.258-6.938,2.683-10.948,4.278c-4.012,1.595-8.12,3.239-12.325,4.93
			c-4.205,1.692-8.388,3.385-12.542,5.075c-4.158,1.692-8.025,3.262-11.6,4.712c1.74,3.965,4.422,7.155,8.047,9.57
			c3.625,2.417,7.757,3.625,12.397,3.625c3.093,0,6.04-0.53,8.845-1.595c2.802-1.063,5.17-2.513,7.105-4.351L454.148,862.622z
			 M449.218,828.692c-1.645-3.285-3.965-5.873-6.96-7.758c-2.997-1.885-6.332-2.827-10.005-2.827c-3.095,0-5.995,0.604-8.7,1.813
			c-2.707,1.209-5.075,2.827-7.105,4.857c-2.03,2.029-3.625,4.375-4.785,7.032c-1.16,2.66-1.74,5.487-1.74,8.482
			c0,1.548,0.145,2.9,0.435,4.06c2.995-1.255,6.185-2.56,9.57-3.914c3.383-1.354,6.766-2.73,10.15-4.133
			c3.382-1.4,6.717-2.755,10.005-4.061C443.368,830.939,446.413,829.757,449.218,828.692z"/>
		<path fill="#FFFFFF" d="M502.432,820.282c-2.9,0-5.68,0.46-8.337,1.377c-2.66,0.92-5.002,2.2-7.033,3.843
			c-2.03,1.645-3.65,3.65-4.857,6.018c-1.21,2.37-1.813,5.003-1.813,7.902v30.16h-7.975v-58h6.815l0.725,14.935
			c1.16-2.512,2.658-4.76,4.495-6.742c1.835-1.98,3.842-3.673,6.018-5.075c2.175-1.399,4.445-2.487,6.815-3.262
			c2.368-0.773,4.615-1.16,6.743-1.16L502.432,820.282z"/>
		<path fill="#FFFFFF" d="M525.773,786.207h7.975v25.955h17.255v7.25h-17.255v50.17h-7.975v-50.17h-11.6v-7.25h11.6V786.207z"/>
		<path fill="#FFFFFF" d="M558.219,840.582c0-4.155,0.798-8.095,2.393-11.817c1.595-3.721,3.77-6.96,6.525-9.715
			c2.755-2.755,5.993-4.931,9.715-6.525c3.72-1.595,7.708-2.393,11.962-2.393c4.252,0,8.24,0.798,11.962,2.393
			c3.72,1.595,6.935,3.771,9.643,6.525c2.705,2.755,4.833,5.994,6.38,9.715c1.545,3.723,2.32,7.662,2.32,11.817
			c0,4.157-0.775,8.072-2.32,11.745c-1.547,3.675-3.697,6.864-6.452,9.57c-2.755,2.707-5.97,4.857-9.643,6.452
			c-3.675,1.595-7.685,2.393-12.035,2.393c-4.255,0-8.217-0.75-11.89-2.248c-3.675-1.497-6.887-3.6-9.643-6.307
			c-2.755-2.706-4.93-5.896-6.525-9.57C559.017,848.944,558.219,844.932,558.219,840.582z M566.194,840.582
			c0,3.095,0.58,5.995,1.74,8.7c1.16,2.707,2.755,5.075,4.785,7.104c2.03,2.03,4.398,3.625,7.105,4.785
			c2.706,1.16,5.605,1.74,8.7,1.74c3.093,0,6.018-0.58,8.772-1.74s5.147-2.755,7.178-4.785c2.03-2.029,3.625-4.397,4.785-7.104
			c1.16-2.705,1.74-5.605,1.74-8.7c0-3.093-0.58-6.018-1.74-8.772c-1.16-2.755-2.755-5.147-4.785-7.178
			c-2.03-2.03-4.423-3.625-7.178-4.785c-2.755-1.159-5.68-1.739-8.772-1.739c-3.095,0-5.995,0.58-8.7,1.739
			c-2.707,1.16-5.075,2.755-7.105,4.785c-2.03,2.03-3.625,4.423-4.785,7.178C566.774,834.564,566.194,837.489,566.194,840.582z"/>
		<path fill="#FFFFFF" d="M681.609,761.412c1.834,2.707,4.107,6.018,6.814,9.933c2.705,3.915,5.654,8.145,8.846,12.688
			c3.189,4.545,6.474,9.185,9.858,13.92c3.383,4.737,6.646,9.305,9.789,13.702c3.139,4.4,6.018,8.436,8.627,12.107
			c2.609,3.675,4.734,6.67,6.381,8.99c0.869-1.255,2.439-3.527,4.711-6.814c2.271-3.285,4.93-7.105,7.977-11.455
			c3.045-4.351,6.354-9.063,9.932-14.138c3.574-5.075,7.08-10.053,10.512-14.936c3.432-4.88,6.67-9.425,9.715-13.63
			s5.533-7.66,7.469-10.367v108.17H771.8v-73.805c0-0.87,0.047-1.788,0.145-2.755c0.094-0.966,0.145-1.788,0.145-2.466
			c-1.645,2.32-3.602,5.101-5.873,8.338c-2.271,3.24-4.664,6.695-7.178,10.367c-2.514,3.675-5.074,7.42-7.684,11.238
			c-2.611,3.819-5.125,7.517-7.541,11.092c-2.418,3.578-4.664,6.913-6.742,10.005c-2.08,3.095-3.795,5.655-5.146,7.686
			c-1.355-1.74-3.191-4.228-5.512-7.468c-2.318-3.237-4.857-6.862-7.611-10.875c-2.756-4.01-5.633-8.168-8.627-12.47
			c-2.998-4.301-5.777-8.338-8.338-12.107c-2.563-3.771-4.835-7.08-6.815-9.933c-1.982-2.851-3.313-4.808-3.988-5.873
			c0,0.678,0.073,1.5,0.219,2.466c0.145,0.967,0.217,1.885,0.217,2.755v73.805h-9.859V761.412z"/>
		<path fill="#FFFFFF" d="M796.868,840.872c0-4.155,0.797-8.095,2.393-11.817c1.595-3.721,3.77-6.982,6.524-9.788
			c2.755-2.802,5.968-5.002,9.643-6.597c3.673-1.596,7.588-2.393,11.745-2.393c2.9,0,5.605,0.387,8.12,1.16
			c2.513,0.774,4.76,1.813,6.742,3.117c1.98,1.305,3.647,2.755,5.003,4.35c1.353,1.596,2.367,3.168,3.045,4.713l0.58-12.035h7.395
			v58h-7.975v-5.945c0-1.063,0.022-2.077,0.072-3.045c0.048-0.965,0.072-1.885,0.072-2.755c-0.677,1.645-1.692,3.215-3.045,4.713
			c-1.354,1.5-3.022,2.877-5.002,4.132c-1.982,1.258-4.23,2.248-6.743,2.973c-2.515,0.726-5.27,1.088-8.265,1.088
			c-4.35,0-8.388-0.798-12.107-2.393c-3.723-1.595-6.912-3.745-9.57-6.452c-2.659-2.706-4.762-5.873-6.308-9.498
			C797.641,848.774,796.868,844.932,796.868,840.872z M804.843,840.438c0,3.189,0.58,6.14,1.74,8.845
			c1.16,2.707,2.755,5.075,4.785,7.104c2.029,2.03,4.422,3.625,7.177,4.785c2.756,1.16,5.728,1.74,8.918,1.74s6.162-0.58,8.918-1.74
			c2.755-1.16,5.147-2.755,7.177-4.785c2.03-2.029,3.625-4.397,4.785-7.104c1.16-2.705,1.74-5.655,1.74-8.845
			c0-3.093-0.58-5.993-1.74-8.7c-1.16-2.705-2.755-5.075-4.785-7.105c-2.029-2.03-4.422-3.625-7.177-4.785
			c-2.756-1.159-5.728-1.739-8.918-1.739s-6.162,0.58-8.918,1.739c-2.755,1.16-5.147,2.732-7.177,4.713
			c-2.03,1.982-3.625,4.327-4.785,7.032C805.423,834.3,804.843,837.247,804.843,840.438z"/>
		<path fill="#FFFFFF" d="M906.745,817.092l-4.35,5.655c-0.775-1.063-2.298-2.053-4.568-2.973c-2.272-0.917-4.567-1.377-6.887-1.377
			c-0.968,0-2.008,0.145-3.118,0.435c-1.112,0.29-2.127,0.75-3.045,1.378c-0.92,0.63-1.692,1.449-2.319,2.465
			c-0.63,1.015-0.943,2.247-0.943,3.697c0,2.225,0.676,3.987,2.03,5.292c1.353,1.306,3.045,2.442,5.075,3.408
			c2.03,0.967,4.228,1.885,6.598,2.755c2.367,0.87,4.567,1.935,6.598,3.189c2.029,1.258,3.72,2.878,5.074,4.858
			c1.353,1.982,2.03,4.52,2.03,7.612c0,4.835-1.645,8.917-4.93,12.252c-3.288,3.335-7.976,5.003-14.065,5.003
			c-3.287,0-6.647-0.58-10.077-1.74c-3.433-1.16-6.213-2.995-8.338-5.51c0.386-0.386,0.87-0.918,1.45-1.595
			c0.58-0.676,1.11-1.306,1.595-1.886c0.483-0.58,0.893-1.087,1.232-1.522c0.338-0.435,0.556-0.652,0.653-0.652
			c0.29,0.485,0.917,1.015,1.885,1.595c0.965,0.58,2.077,1.138,3.335,1.668c1.255,0.532,2.61,0.992,4.06,1.377
			c1.45,0.388,2.851,0.58,4.205,0.58c1.16,0,2.393-0.167,3.697-0.507c1.306-0.338,2.513-0.893,3.625-1.668
			c1.11-0.772,2.006-1.74,2.683-2.899c0.676-1.16,1.016-2.561,1.016-4.205c0-2.223-0.678-3.988-2.03-5.293
			c-1.354-1.305-3.045-2.439-5.075-3.407c-2.03-0.965-4.255-1.86-6.67-2.683c-2.417-0.82-4.64-1.86-6.67-3.117
			c-2.03-1.256-3.723-2.9-5.075-4.931c-1.354-2.029-2.029-4.64-2.029-7.83c0-2.899,0.529-5.34,1.595-7.322
			c1.063-1.979,2.415-3.625,4.06-4.93c1.643-1.305,3.503-2.248,5.583-2.827c2.077-0.58,4.082-0.87,6.018-0.87
			c2.513,0,5.268,0.532,8.265,1.595C901.91,813.227,904.521,814.869,906.745,817.092z"/>
		<path fill="#FFFFFF" d="M970.865,862.622c-2.806,2.515-6.091,4.495-9.86,5.945c-3.771,1.449-7.686,2.175-11.745,2.175
			c-4.255,0-8.242-0.798-11.963-2.393c-3.722-1.595-6.96-3.745-9.715-6.452c-2.755-2.706-4.93-5.896-6.524-9.57
			c-1.596-3.673-2.393-7.588-2.393-11.745c0-4.155,0.797-8.095,2.393-11.817c1.595-3.721,3.77-6.96,6.524-9.715
			s5.968-4.931,9.643-6.525c3.673-1.595,7.588-2.393,11.745-2.393c6.38,0,11.913,1.935,16.603,5.8
			c4.688,3.868,8.143,8.798,10.367,14.79c-3.287,1.258-6.938,2.683-10.947,4.278c-4.013,1.595-8.12,3.239-12.325,4.93
			c-4.205,1.692-8.387,3.385-12.542,5.075c-4.157,1.692-8.025,3.262-11.601,4.712c1.74,3.965,4.423,7.155,8.048,9.57
			c3.625,2.417,7.758,3.625,12.397,3.625c3.093,0,6.04-0.53,8.845-1.595c2.803-1.063,5.171-2.513,7.105-4.351L970.865,862.622z
			 M965.935,828.692c-1.645-3.285-3.965-5.873-6.96-7.758c-2.997-1.885-6.332-2.827-10.005-2.827c-3.095,0-5.995,0.604-8.7,1.813
			c-2.707,1.209-5.075,2.827-7.104,4.857c-2.03,2.029-3.625,4.375-4.785,7.032c-1.16,2.66-1.74,5.487-1.74,8.482
			c0,1.548,0.146,2.9,0.436,4.06c2.995-1.255,6.185-2.56,9.569-3.914c3.383-1.354,6.766-2.73,10.15-4.133
			c3.383-1.4,6.718-2.755,10.005-4.061C960.085,830.939,963.13,829.757,965.935,828.692z"/>
		<path fill="#FFFFFF" d="M1017.73,820.282c-2.899,0-5.68,0.46-8.337,1.377c-2.66,0.92-5.003,2.2-7.032,3.843
			c-2.03,1.645-3.65,3.65-4.857,6.018c-1.21,2.37-1.813,5.003-1.813,7.902v30.16h-7.976v-58h6.815l0.725,14.935
			c1.16-2.512,2.657-4.76,4.495-6.742c1.835-1.98,3.843-3.673,6.018-5.075c2.175-1.399,4.445-2.487,6.814-3.262
			c2.368-0.773,4.615-1.16,6.743-1.16L1017.73,820.282z"/>
		<path fill="#FFFFFF" d="M1023.966,840.872c0-4.155,0.797-8.095,2.393-11.817c1.595-3.721,3.77-6.982,6.524-9.788
			c2.755-2.802,5.968-5.002,9.643-6.597c3.673-1.596,7.588-2.393,11.745-2.393c2.9,0,5.605,0.387,8.12,1.16
			c2.513,0.774,4.76,1.813,6.742,3.117c1.98,1.305,3.647,2.755,5.003,4.35c1.353,1.596,2.367,3.168,3.045,4.713l0.58-12.035h7.395
			v58h-7.975v-5.945c0-1.063,0.022-2.077,0.072-3.045c0.048-0.965,0.072-1.885,0.072-2.755c-0.677,1.645-1.692,3.215-3.045,4.713
			c-1.354,1.5-3.022,2.877-5.002,4.132c-1.982,1.258-4.23,2.248-6.743,2.973c-2.515,0.726-5.27,1.088-8.265,1.088
			c-4.35,0-8.388-0.798-12.107-2.393c-3.723-1.595-6.912-3.745-9.57-6.452c-2.659-2.706-4.762-5.873-6.308-9.498
			C1024.738,848.774,1023.966,844.932,1023.966,840.872z M1031.94,840.438c0,3.189,0.58,6.14,1.74,8.845
			c1.16,2.707,2.755,5.075,4.785,7.104c2.029,2.03,4.422,3.625,7.177,4.785c2.756,1.16,5.728,1.74,8.918,1.74s6.162-0.58,8.918-1.74
			c2.755-1.16,5.147-2.755,7.177-4.785c2.03-2.029,3.625-4.397,4.785-7.104c1.16-2.705,1.74-5.655,1.74-8.845
			c0-3.093-0.58-5.993-1.74-8.7c-1.16-2.705-2.755-5.075-4.785-7.105c-2.029-2.03-4.422-3.625-7.177-4.785
			c-2.756-1.159-5.728-1.739-8.918-1.739s-6.162,0.58-8.918,1.739c-2.755,1.16-5.147,2.732-7.177,4.713
			c-2.03,1.982-3.625,4.327-4.785,7.032C1032.521,834.3,1031.94,837.247,1031.94,840.438z"/>
		<path fill="#FFFFFF" d="M1109.517,786.207h7.975v25.955h17.255v7.25h-17.255v50.17h-7.975v-50.17h-11.601v-7.25h11.601V786.207z"
			/>
		<path fill="#FFFFFF" d="M1144.75,790.557c0-1.643,0.603-3.02,1.813-4.132c1.207-1.11,2.537-1.668,3.987-1.668
			s2.755,0.558,3.915,1.668c1.16,1.112,1.74,2.489,1.74,4.132c0,1.74-0.58,3.143-1.74,4.205c-1.16,1.065-2.465,1.596-3.915,1.596
			s-2.78-0.53-3.987-1.596C1145.353,793.699,1144.75,792.297,1144.75,790.557z M1154.465,869.582h-7.975v-58h7.975V869.582z"/>
	</g>
</g>
</svg>
