<svg enable-background="new 0 0 1163.6 190.3" viewBox="0 0 1163.6 190.3" xmlns="http://www.w3.org/2000/svg"><g fill="#fff"><path d="m431.5 130.4h-36.5v-98.5h36.4c15.9 0 21.9 9.4 21.9 25.9 0 15.2-4.6 19.5-10.5 22.4 6.6 2.3 12.1 8.6 12.1 23.5 0 17.5-7.1 26.7-23.4 26.7zm-2.4-46.1h-13.4v-8.3h13.4c8.2 0 9.7-4.8 9.7-17 0-13.8-4.4-18.7-10.8-18.7h-18.3v81.7h18.3c7 0 12-4.6 12-18.1 0-14.1-2.7-19.6-10.9-19.6z"/><path d="m480.6 42.4h-14.3v-13.5h14.3zm0 88h-14.3v-78h14.3z"/><path d="m510 60.8v69.6h-14.3v-78h38.5c16.9 0 21.2 6.5 21.2 23.9v54.1h-14.4v-54.7c0-12.5-2-14.9-12-14.9z"/><path d="m594.8 60.8c-10 0-12 2.4-12 14.9v31.4c0 12.5 2 14.9 12 14.9h18.6v-92.9h14.3v101.4h-38c-16.9 0-21.2-6.5-21.2-23.9v-30.3c0-17.4 4.4-23.9 21.2-23.9h15.9v8.4z"/><path d="m657 42.4h-14.3v-13.5h14.3zm0 88h-14.3v-78h14.3z"/><path d="m686.4 60.8v69.6h-14.3v-78h38.5c16.9 0 21.2 6.5 21.2 23.9v54.1h-14.3v-54.7c0-12.5-2-14.9-11.9-14.9z"/><path d="m777.8 153.2c10 0 12-2.7 12-15.2v-77.2h-18.6c-10 0-12 2.4-12 14.9v31.4c0 12.5 2 14.9 12 14.9h10.8v8.4h-15.9c-16.9 0-21.2-6.5-21.2-23.9v-30.2c0-17.4 4.4-23.9 21.2-23.9h38v85.1c0 17.4-4.4 23.9-21.2 23.9h-18.7v-8.2z"/><path d="m866.8 40.3h-33v37h24.9v8.3h-24.9v44.9h-14.9v-98.6h47.9z"/><path d="m918 122v-69.6h14.3v78h-37.8c-16.9 0-21.2-6.5-21.2-23.9v-54.1h14.3v54.7c0 12.5 2 14.9 12 14.9z"/><path d="m980.4 60.8h-19.5v49.8c0 9 2 11.4 9.3 11.4h6.3v8.4h-12.1c-13.5 0-17.9-8.2-17.9-18.8v-79.7h14.3v20.5h19.5z"/><path d="m1034 122v-69.6h14.3v78h-37.8c-16.9 0-21.2-6.5-21.2-23.9v-54.1h14.3v54.7c0 12.5 2 14.9 11.9 14.9z"/><path d="m1083.7 52.4h14.6v8.4h-9.6c-10 0-11.9 2.4-11.9 14.9v54.7h-14.3v-54.1c0-17.4 4.4-23.9 21.2-23.9z"/><path d="m1129.3 97.8v-8.2h8c10 0 11.9-2.7 11.9-10.4v-7.6c0-8.4-2-10.8-11.9-10.8h-5.9c-10 0-11.9 2.4-11.9 14.9v31.4c0 12.5 2 14.9 11.9 14.9h26.6v8.4h-31.6c-16.9 0-21.2-6.5-21.2-23.9v-30.2c0-17.4 4.4-23.9 21.2-23.9h16c16.9 0 21.2 6.5 21.2 18.4v8.6c0 12-4.4 18.4-21.2 18.4z"/></g><path d="m167.2 35c-45-17.2-91.5-35-167.2-35v47.6c66.9 0 107.4 15.5 150.2 31.9 8.4 3.2 16.9 6.5 25.8 9.7 26.7-9.5 56.9-18.5 94.9-23.8-42.1-6.8-73.2-18.7-103.7-30.4z" fill="#9fcc4a"/><path d="m0 190.3v-47.6c66.9 0 107.4-15.5 150.2-31.9 48-18.4 102.4-39.2 197.1-39.2v47.6c-85.8 0-133.7 18.3-180 36.1-45.1 17.2-91.6 35-167.3 35z" fill="#fff"/></svg>