<?xml version="1.0" encoding="utf-8"?>
<!-- Generator: Adobe Illustrator 16.0.3, SVG Export Plug-In . SVG Version: 6.00 Build 0)  -->
<!DOCTYPE svg PUBLIC "-//W3C//DTD SVG 1.1//EN" "http://www.w3.org/Graphics/SVG/1.1/DTD/svg11.dtd">
<svg version="1.1" xmlns="http://www.w3.org/2000/svg" xmlns:xlink="http://www.w3.org/1999/xlink" x="0px" y="0px"
	 width="721.464px" height="419.979px" viewBox="0 0 721.464 419.979" enable-background="new 0 0 721.464 419.979"
	 xml:space="preserve">
<g id="bg">
</g>
<g id="Livello_1">
	<g>
		<path fill-rule="evenodd" clip-rule="evenodd" fill="#FFFFFF" d="M517.399,72.931c0.215,1.504,0.709,3.268,0.83,5.09
			c2.26,30.674,4.398,61.449,6.656,92.082c2.061,29.646,4.076,59.113,6.117,88.699c0.555,7.17,5.092,9.346,11.389,5.27
			c0.869-0.516,2.041-0.914,3.207-1.287c8.318-2.936,11.484-7.41,11.504-16.418c0-9.92,0.379-19.863-0.057-29.744
			c-1.25-28.873-2.736-57.746-4.398-86.599c-1.307-22.238-3.09-44.418-4.537-66.654c-0.137-2.201,0.141-5.705,1.408-6.4
			c15.762-8.949,30.852-20.139,49.984-19.98c11.506,0.041,23.049,2.338,34.617,2.379c8.494,0.016,13.623,3.979,18.117,10.256
			c4.752,6.535,8.338,13.07,1.404,20.26c-0.334,0.375-0.393,0.891-0.451,1.385c-1.545,12.316-8.26,22.379-15.965,31.092
			c-15.207,17.465-22.752,39.189-33.84,58.773c-3.289,5.785-5.703,9.744-12.816,9.467c-2.949-0.117-6.117,1.068-8.906,2.26
			c-7.191,2.871-10.396,8.691-8.322,14.078c3.688,9.328,10.514,13.07,18.559,10.08c6.813-2.594,13.662-7.188,20.553-7.307
			c20.041-0.219,40.164,1.246,59.41,8.375c4.518,1.703,6.359,4.002,4.557,9.15c-7.486,21.781-20.119,39.585-39.826,51.705
			c-9.701,5.961-19.268,13.723-29.961,16.061c-22.656,4.973-45.525,11.127-69.293,9.586c-4.057-0.18-8.414,0.93-12.414,2.297
			c-7.049,2.219-8.336,7.563-3.508,13.131c1.783,1.996,4.379,3.484,6.754,4.91c10.004,6.195,21.484,4.594,32.439,6.338
			c32.082,5.047,61.389-4.539,88.775-18.734c23.564-12.123,42.322-30.299,52.799-56.301c6.02-14.814,8.254-29.587,6.869-45.052
			c-0.398-4.436-3.328-8.795-5.846-12.674c-0.928-1.426-3.896-1.803-6.039-2.34c-3.877-0.928-8.313-0.531-11.66-2.434
			c-9.168-4.971-18.652-7.604-29.111-7.662c-7.9-0.08-15.824-0.99-25.746-1.525c7.469-10.951,13.531-20.756,20.615-29.785
			c16.68-21.365,28.977-44.674,33.033-71.805c2.375-15.645-0.594-27.35-16.693-34.934c-19.449-9.188-39.865-14.238-61.092-13.148
			c-17.846,1.031-35.607,3.961-51.787,13.109c-10.854,6.219-22.475,11.189-33.684,16.891c-8.021,4.141-16.262,8.318-23.865,13.133
			c-2.453,1.582-5.389,6.951-4.455,8.354c1.842,3.152,5.781,6.258,9.391,7.051C506.784,74.356,511.896,73.149,517.399,72.931z"/>
		<path fill-rule="evenodd" clip-rule="evenodd" fill="#FFFFFF" d="M239.463,82.556c0.335-23.389-10.378-40.021-28.32-53.232
			c-15.349-11.348-33.451-15.604-51.33-19.643c-9.266-2.061-19.469-2.832-28.908-1.564c-20.581,2.773-40.856,7.443-61.373,11.051
			c-13.03,2.314-25.964,3.582-36.239,13.881c-7.031,7.111-6.341,10.277,1.918,15.842c2.178,1.506,5.467,2.238,8.119,1.922
			c7.429-0.893,14.774-2.676,22.218-3.822c17.511-2.693,35.156-4.832,52.579-8.021c21.606-3.98,42.556-2.99,61.824,8.24
			c8.42,4.852,18.06,9.029,22.281,19.703c7.05,17.605,1.069,33.961-5.902,48.973c-5.189,11.207-15.149,20.457-23.865,29.645
			c-4.752,4.932-11.189,8.338-17.146,12.002c-12.399,7.504-26.674,5.406-40.161,7.188c-4.159,0.615-8.536,0.557-12.753-0.178
			c-7.288-1.189-8.756-3.959-6.419-11.092c1.269-3.959-2.195-12.793-5.621-14.273c-4.893-2.021-12.973-0.064-14.936,4.65
			c-2.273,5.566-3.561,11.605-4.688,17.547c-1.254,6.713,4.688,21.27,9.779,23.01c14.178,5.109,28.219,11.111,44.004,8.814
			c6.039-0.934,12.278-0.934,18.453-1.326c14.42-0.893,27.31-6.734,38.362-15.111c13.187-10.1,25.309-21.547,37.013-33.309
			c5.383-5.506,10.174-12.873,12.375-20.143C234.784,110.042,236.669,96.2,239.463,82.556z"/>
		<path fill-rule="evenodd" clip-rule="evenodd" fill="#FFFFFF" d="M12.935,305.952c0.592,0.02,1.166,0.121,1.738,0.219
			c-0.257,13.051-0.257,13.051,12.045,16.557c8.293,2.396,15.703-1.525,17.204-10.08c2.638-15.031,4.814-30.082,6.816-45.209
			c3.405-25.646,6.511-51.152,9.858-76.759c2.934-22.455,5.587-44.912,9.09-67.328c2.575-16.238,6.438-32.182,9.684-48.34
			c0.34-1.762,0.752-3.924,0.121-5.428c-3.168-7.859-23.623-13.961-30.556-8.971c-1.326,0.934-2.376,2.912-2.711,4.516
			c-3.134,15.369-6.617,30.496-8.993,45.922c-4.314,27.746-8.201,55.648-11.646,83.59C21.033,231.692,17.132,268.803,12.935,305.952
			z"/>
		<path fill-rule="evenodd" clip-rule="evenodd" fill="#FFFFFF" d="M263.799,360.879c6.534,0,12.156,0,17.763,0
			c0.895,0,1.783-0.158,2.575,0.1c10.12,2.314,10.378,2.16,13.468-7.506c0.812-2.711,1.326-5.545,1.604-8.318
			c0.792-11.576,1.88-23.16,2.157-34.768c0.417-15.107,0.218-30.18,0.218-45.248c0-10.654-0.752-21.25-0.354-31.783
			c0.748-18.912,3.92-37.923,2.652-56.539c-1.904-26.537-3.031-52.992-0.32-79.391c0.714-6.555,2.2-13.227,4.756-19.148
			c1.958-4.102,0.831-6.355-1.982-8.357c-4.357-2.951-9.031-5.605-14.73-9.168c7.545-0.771,13.545-1.725,19.74-1.764
			c9.645-0.059,19.23,0.297,28.895,0.973c32.08,2.295,61.566,11.859,87.195,31.842c5.602,4.396,6.438,9.367,1.307,14.377
			c-5.781,5.504-12.676,9.662-19.012,14.771c-17.229,13.883-34.359,28.143-51.729,42.004c-4.154,3.326-8.91,6.336-14.021,8.318
			c-8.332,3.168-17.268,5.385-25.766,8.434c-1.977,0.674-3.658,3.051-4.746,5.029c-3.566,7.525,1.064,15.17,10.121,17.447
			c4.494,1.168,10.076,1.564,12.928,4.537c8.576,8.511,15.586,18.416,23.803,27.226c11.111,11.842,19.686,26.041,33.547,35.547
			c8.139,5.586,14.654,13.885,21.406,21.389c13.445,14.654,25.984,30,39.607,44.359c9.605,9.973,21.008,18.332,30.773,28.408
			c13.604,14.041,26.262,29.129,39.666,43.588c7.133,7.645,7.369,7.389,15.488,1.525c2.77,0.514,5.029,1.445,6.908,0.971
			c1.012-0.277,2.26-3.426,1.842-4.693c-1.957-5.168-3.463-10.951-6.83-15.051c-11.885-14.102-24.574-27.525-36.852-41.33
			c-11.705-13.121-22.953-26.49-34.758-39.52c-12.297-13.504-24.975-26.715-37.566-40.041c-6.039-6.633-12.316-13.07-18.279-19.785
			c-14.201-15.545-28.65-30.914-42.199-47.109c-9.723-11.527-9.111-12.08,3.391-19.447c0.213-0.061,0.373-0.256,0.588-0.395
			c9.959-7.15,20.002-14.238,29.787-21.764c17.346-13.488,34.574-26.975,51.588-41.113c3.188-2.752,6.51-8.021,6.355-11.98
			c-0.395-10.732-2.236-21.803-10.732-29.744c-25.27-23.309-53.371-41.211-88.305-45.072c-17.027-1.822-34.457-2.832-51.666-2.477
			c-16.062,0.318-31.9,3.229-47.963,4.338c-5.723,0.418-8.891,2.891-9.109,7.646c-0.175,3.426,1.404,8.139,3.901,10.039
			c5.009,3.783,10.951,6.572,16.835,8.93c4.829,1.982,5.621,4.576,4.436,9.35c-2.041,8.158-4.422,16.473-5.136,24.891
			c-1.919,26.793-3.163,53.688-4.489,80.619c-0.675,11.881-1.093,23.922-1.568,35.924c-0.729,18.333-1.424,36.812-2.274,55.189
			c-0.772,16.951-1.687,33.803-2.638,50.715C265.344,331.737,264.63,345.692,263.799,360.879z"/>
	</g>
</g>
</svg>
