<?xml version="1.0" encoding="utf-8"?>
<!-- Generator: Adobe Illustrator 16.0.0, SVG Export Plug-In . SVG Version: 6.00 Build 0)  -->
<!DOCTYPE svg PUBLIC "-//W3C//DTD SVG 1.1//EN" "http://www.w3.org/Graphics/SVG/1.1/DTD/svg11.dtd">
<svg version="1.1" id="Layer_1" xmlns="http://www.w3.org/2000/svg" xmlns:xlink="http://www.w3.org/1999/xlink" x="0px" y="0px"
	 width="480px" height="360px" viewBox="0 0 480 360" enable-background="new 0 0 480 360" xml:space="preserve">
<g>
	<path fill-rule="evenodd" clip-rule="evenodd" fill="#003056" d="M297.494,139.428c0.095,0.562,0.263,1.216,0.312,1.881
		c0.821,11.305,1.635,22.611,2.438,33.919c0.769,10.875,1.522,21.751,2.279,32.624c0.185,2.667,1.858,3.445,4.166,1.959
		c0.349-0.224,0.781-0.318,1.181-0.461c3.071-1.11,4.233-2.742,4.249-6.072c0.018-3.65,0.138-7.304-0.022-10.946
		c-0.474-10.634-1.006-21.268-1.626-31.895c-0.475-8.18-1.135-16.346-1.655-24.524c-0.054-0.792,0.031-2.079,0.501-2.347
		c5.798-3.3,11.352-7.423,18.419-7.364c4.243,0.039,8.485,0.862,12.729,0.877c3.13,0.011,5.016,1.483,6.676,3.777
		c1.739,2.408,3.072,4.795,0.507,7.48c-0.111,0.113-0.147,0.318-0.169,0.486c-0.568,4.53-3.038,8.243-5.857,11.474
		c-5.6,6.424-8.387,14.381-12.475,21.612c-1.209,2.142-2.095,3.579-4.707,3.495c-1.087-0.037-2.239,0.385-3.277,0.806
		c-2.66,1.082-3.844,3.19-3.062,5.194c1.354,3.454,3.86,4.814,6.825,3.702c2.518-0.944,5.031-2.653,7.558-2.682
		c7.396-0.085,14.803,0.452,21.874,3.077c1.675,0.626,2.343,1.467,1.688,3.363c-2.759,8.019-7.412,14.574-14.677,19.057
		c-3.552,2.19-7.088,5.022-11,5.887c-8.361,1.85-16.763,4.106-25.514,3.566c-1.516-0.094-3.126,0.328-4.598,0.807
		c-2.567,0.834-3.07,2.783-1.281,4.851c0.656,0.758,1.623,1.27,2.496,1.813c3.685,2.282,7.914,1.698,11.933,2.333
		c11.812,1.868,22.583-1.688,32.673-6.887c8.685-4.476,15.586-11.178,19.449-20.733c2.208-5.464,3.039-10.889,2.527-16.581
		c-0.146-1.619-1.23-3.227-2.15-4.667c-0.349-0.543-1.439-0.684-2.222-0.864c-1.429-0.33-3.071-0.216-4.294-0.888
		c-3.376-1.85-6.872-2.829-10.726-2.852c-2.912-0.019-5.827-0.34-9.479-0.573c2.753-3.999,4.988-7.619,7.59-10.951
		c6.146-7.869,10.67-16.412,12.17-26.421c0.863-5.739-0.232-10.065-6.152-12.853c-7.147-3.369-14.67-5.246-22.493-4.83
		c-6.57,0.349-13.108,1.455-19.048,4.824c-4.015,2.273-8.273,4.104-12.386,6.207c-2.99,1.528-6.004,3.04-8.818,4.85
		c-0.9,0.58-1.957,2.535-1.63,3.075c0.698,1.162,2.145,2.267,3.469,2.56C293.589,139.969,295.471,139.527,297.494,139.428z"/>
	<path fill-rule="evenodd" clip-rule="evenodd" fill="#003056" d="M195.2,143c0.11-8.625-3.827-14.749-10.446-19.624
		c-5.652-4.166-12.289-5.722-18.885-7.22c-3.426-0.776-7.17-1.049-10.637-0.575c-7.575,1.031-15.058,2.737-22.594,4.065
		c-4.797,0.845-9.573,1.32-13.352,5.127c-2.587,2.604-2.318,3.774,0.711,5.825c0.799,0.537,2.016,0.801,2.981,0.688
		c2.745-0.327,5.45-0.96,8.187-1.386c6.448-1.003,12.938-1.788,19.354-2.969c7.96-1.468,15.674-1.095,22.752,3.019
		c3.125,1.819,6.654,3.337,8.222,7.269c2.59,6.486,0.379,12.512-2.176,18.045c-1.901,4.117-5.576,7.497-8.796,10.888
		c-1.74,1.83-4.116,3.103-6.319,4.438c-4.556,2.766-9.812,1.958-14.769,2.641c-1.537,0.213-3.161,0.183-4.693-0.06
		c-2.693-0.424-3.225-1.48-2.377-4.076c0.478-1.466-0.798-4.735-2.057-5.27c-1.802-0.764-4.789-0.039-5.499,1.703
		c-0.836,2.045-1.312,4.266-1.725,6.452c-0.467,2.462,1.728,7.832,3.59,8.504c5.223,1.882,10.395,4.089,16.202,3.232
		c2.237-0.328,4.523-0.349,6.789-0.494c5.31-0.34,10.059-2.477,14.128-5.58c4.839-3.693,9.323-7.912,13.604-12.254
		c2.006-2.034,3.762-4.718,4.588-7.423C193.471,153.104,194.172,148.002,195.2,143z"/>
	<path fill-rule="evenodd" clip-rule="evenodd" fill="#003056" d="M111.799,225.225c0.214,0.023,0.426,0.047,0.638,0.072
		c-0.097,4.808-0.097,4.808,4.435,6.106c3.058,0.877,5.777-0.57,6.337-3.74c0.977-5.52,1.765-11.079,2.506-16.64
		c1.258-9.402,2.4-18.821,3.621-28.23c1.078-8.266,2.048-16.549,3.353-24.778c0.946-5.977,2.375-11.877,3.561-17.817
		c0.13-0.646,0.281-1.419,0.054-1.983c-1.167-2.897-8.712-5.125-11.243-3.32c-0.493,0.351-0.874,1.077-1.001,1.695
		c-1.16,5.615-2.449,11.216-3.319,16.878c-1.576,10.233-3.021,20.489-4.282,30.766C114.785,197.88,113.343,211.558,111.799,225.225z
		"/>
	<path fill-rule="evenodd" clip-rule="evenodd" fill="#003056" d="M204.141,245.426c2.43,0,4.488,0,6.547,0.003
		c0.314,0,0.643-0.038,0.943,0.032c3.725,0.849,3.84,0.811,4.944-2.757c0.31-0.992,0.513-2.038,0.589-3.074
		c0.318-4.252,0.697-8.508,0.812-12.766c0.149-5.555,0.088-11.115,0.074-16.673c-0.009-3.902-0.251-7.812-0.106-11.707
		c0.258-6.945,1.429-13.935,0.943-20.813c-0.688-9.77-1.084-19.482-0.098-29.218c0.241-2.391,0.802-4.852,1.767-7.036
		c0.683-1.54,0.305-2.334-0.754-3.07c-1.599-1.115-3.306-2.076-5.437-3.394c2.778-0.263,5.029-0.641,7.278-0.65
		c3.545-0.014,7.098,0.119,10.633,0.366c11.813,0.826,22.667,4.339,32.095,11.722c2.055,1.609,2.396,3.448,0.483,5.28
		c-2.115,2.029-4.676,3.586-6.969,5.438c-6.366,5.141-12.658,10.373-19.062,15.466c-1.548,1.234-3.307,2.33-5.139,3.045
		c-3.11,1.212-6.383,1.998-9.523,3.136c-0.708,0.257-1.344,1.127-1.707,1.866c-1.347,2.754,0.357,5.566,3.693,6.419
		c1.646,0.423,3.71,0.573,4.781,1.648c3.125,3.141,5.721,6.8,8.757,10.039c4.086,4.358,7.217,9.549,12.316,13.067
		c3.019,2.08,5.419,5.109,7.925,7.868c4.902,5.396,9.539,11.044,14.568,16.316c3.541,3.707,7.746,6.78,11.311,10.468
		c5.024,5.192,9.677,10.743,14.594,16.042c2.628,2.832,2.729,2.737,5.713,0.568c1.015,0.179,1.852,0.538,2.552,0.362
		c0.367-0.093,0.841-1.255,0.672-1.717c-0.699-1.913-1.261-4.044-2.526-5.546c-4.377-5.199-9.047-10.148-13.561-15.233
		c-4.285-4.821-8.455-9.752-12.793-14.525c-4.529-4.988-9.204-9.845-13.808-14.764c-2.258-2.409-4.528-4.804-6.742-7.249
		c-5.212-5.752-10.56-11.392-15.536-17.341c-3.58-4.283-3.352-4.474,1.246-7.174c0.075-0.044,0.147-0.091,0.219-0.143
		c3.658-2.659,7.383-5.228,10.956-7.998c6.396-4.963,12.763-9.965,18.978-15.145c1.219-1.016,2.429-2.951,2.37-4.41
		c-0.159-3.973-0.82-8.038-3.981-10.962c-9.261-8.558-19.605-15.172-32.463-16.576c-6.313-0.69-12.703-1.06-19.049-0.935
		c-5.889,0.114-11.752,1.212-17.647,1.602c-2.097,0.137-3.263,1.087-3.353,2.831c-0.065,1.233,0.524,2.975,1.442,3.685
		c1.821,1.411,4.01,2.437,6.173,3.302c1.792,0.716,2.098,1.664,1.654,3.418c-0.769,3.025-1.646,6.084-1.871,9.173
		c-0.715,9.879-1.166,19.775-1.688,29.667c-0.233,4.407-0.4,8.818-0.58,13.228c-0.272,6.771-0.494,13.548-0.802,20.318
		c-0.285,6.229-0.654,12.454-0.989,18.683C204.711,234.728,204.438,239.848,204.141,245.426z"/>
</g>
</svg>
