<?xml version="1.0" encoding="UTF-8"?>
<svg id="Layer_2" data-name="Layer 2" xmlns="http://www.w3.org/2000/svg" viewBox="0 0 358.68 138.7">
  <defs>
    <style>
      .cls-1 {
        fill: #fff;
      }

      .cls-2 {
        fill: #ff2368;
      }
    </style>
  </defs>
  <g>
    <polygon class="cls-1" points="355.76 19.16 355.76 110.19 337.8 110.19 337.82 19.16 355.76 19.16"/>
    <path class="cls-1" d="M135.89,38.81c-15.6,0-28.24,10.96-28.24,24.49v14.21h-39.01c-3.67-.35-6.58-3.4-6.58-7.16v-12.5s38.52,0,38.52,0l.02-33.36c0-13.53-12.64-24.49-28.24-24.49s-28.25,10.97-28.25,24.49v17.52s-26.16,0-26.16,0v-23.51H0v91.66c1.21,12.94,12.09,23.07,25.34,23.07h0s14.95,0,14.95,0v-16.13h-15.76c-3.66-.35-6.57-3.41-6.57-7.17v-52.08h26.16v12.72c1.2,12.94,12.08,23.07,25.33,23.07h0s38.2,0,38.2,0v16.38c0,13.52,12.64,24.49,28.24,24.49s28.24-10.97,28.24-24.49v-46.72c0-13.53-12.64-24.49-28.24-24.49ZM68.62,17.09l7.46.02c3.66.34,6.58,3.4,6.58,7.16v17.75h-20.6v-17.76c0-3.76,2.9-6.81,6.57-7.16ZM139.62,117.43l-7.45-.02c-3.67-.34-6.58-3.4-6.58-7.16v-47.19c-.01-3.76,2.89-6.81,6.56-7.16l7.45.02c3.67.35,6.57,3.4,6.57,7.16v1.09s.01,46.11.01,46.11c0,3.76-2.9,6.81-6.57,7.16Z"/>
    <path class="cls-1" d="M291.37,19.13l46.45.03V2.95l-46.65.04c-11.95,0-21.45,9.69-21.45,21.65,0,4.49,1.37,8.67,3.72,12.13l36.67,32.72c.89.89,1.44,2.12,1.44,3.47,0,2.71-2.2,4.91-4.92,4.91h-74.27c-3.67-.35-6.58-3.4-6.58-7.16v-12.46s38.6,0,38.6,0l-.06-33.43v.03c0-13.53-12.65-24.49-28.24-24.49s-28.24,10.96-28.24,24.49v17.29h-9.14c-13.25.01-24.13,10.14-25.33,23.07v67.83s17.94,0,17.94,0v-67.61c0-3.76,2.91-6.81,6.58-7.16h9.95v12.66c1.2,12.93,12.08,23.06,25.33,23.06h.01s73.46.01,73.46.01c11.96,0,21.66-9.69,21.66-21.65,0-4.5-1.13-9.47-4.31-12.65l-36.08-32.2c-.89-.89-1.43-2.12-1.43-3.48,0-2.71,2.19-4.9,4.9-4.9ZM232.34,17.44l7.46.02c3.67.35,6.58,3.4,6.58,7.16v17.55h-20.61v-17.57c0-3.76,2.9-6.81,6.57-7.17Z"/>
  </g>
  <rect class="cls-2" x="337.82" y="2.97" width="17.95" height="16.19"/>
  <g>
    <path class="cls-2" d="M231.89,132.62h-2.19v-1.8h-.12c-1.07,1.64-2.25,1.98-6.79,1.98-3.93,0-5.57-.24-6.82-1.04-1.67-1.1-2.34-2.83-2.34-6.15s.79-5.39,2.59-6.42c1.16-.67,2.89-.88,7.12-.88,3.9,0,5.21.4,6.18,1.89h.15v-7.89h2.22v20.31ZM217.39,121.11c-1,.73-1.4,2.01-1.4,4.51,0,4.38,1.07,5.24,6.42,5.24,3.56,0,5.05-.21,5.94-.85,1-.73,1.4-1.95,1.4-4.29,0-4.63-.97-5.45-6.61-5.45-3.47,0-4.87.21-5.75.85Z"/>
    <path class="cls-2" d="M236.76,112.31v2.65h-2.22v-2.65h2.22ZM236.76,118.52v14.1h-2.22v-14.1h2.22Z"/>
    <path class="cls-2" d="M257.37,118.52v10.57c0,4.32-.3,5.88-1.37,7.06-1.28,1.4-2.89,1.74-8.16,1.74-4.72,0-6.67-.52-7.79-2.04-.52-.7-.67-1.22-.67-2.53h2.31c.18,2.07,1.37,2.62,5.91,2.62,4.26,0,5.88-.3,6.64-1.28.64-.79.76-1.49.88-4.38h-.15c-1.22,1.52-2.34,1.83-6.88,1.83-3.96,0-5.82-.34-6.94-1.19-1.46-1.13-2.13-2.89-2.13-5.72,0-3.29.97-5.24,3.04-6.15,1.22-.52,2.86-.7,6.49-.7,3.14,0,4.17.15,5.15.7.64.37.94.7,1.34,1.28h.12l-.03-1.8h2.25ZM242.94,121.05c-1.04.58-1.55,1.98-1.55,4.2,0,2.47.61,3.81,1.95,4.41.76.34,2.34.49,4.9.49,3.14,0,4.6-.21,5.45-.79,1.04-.73,1.43-1.95,1.43-4.35,0-3.9-1.16-4.72-6.58-4.72-3.07,0-4.69.21-5.6.76Z"/>
    <path class="cls-2" d="M262.11,112.31v2.65h-2.22v-2.65h2.22ZM262.11,118.52v14.1h-2.22v-14.1h2.22Z"/>
    <path class="cls-2" d="M269.06,115.02v3.5h9.87v1.92h-9.87v6.09c.06,2.68.06,2.77.52,3.35.58.7,1.58.97,3.71.97,1.98,0,2.74-.21,3.23-.97.33-.52.43-1.04.43-2.77v-.88h2.22v.88c0,2.19-.18,3.11-.76,3.96-.82,1.25-2.34,1.74-5.33,1.74s-4.63-.46-5.45-1.58c-.61-.85-.79-1.74-.79-3.96v-6.82h-3.47v-1.92h3.47v-3.5h2.22Z"/>
    <path class="cls-2" d="M298.8,128.27c-.09,3.38-2.07,4.54-7.79,4.54-4.87,0-7.03-.33-8.28-1.31-1.34-1.04-2.01-2.98-2.01-5.88,0-3.44.82-5.42,2.65-6.42,1.16-.64,2.77-.85,6.18-.85,4.87,0,6.55.4,7.86,1.86,1.07,1.25,1.37,2.53,1.43,5.88h-15.71c.06,1.83.36,2.92,1.04,3.62.85.88,2.37,1.16,6.61,1.16,3.2,0,4.45-.24,5.18-1.07.37-.37.43-.61.52-1.52h2.34ZM296.37,124.16c-.03-3.11-1.4-3.87-6.88-3.87-4.87,0-6.06.73-6.3,3.87h13.18Z"/>
    <path class="cls-2" d="M318.22,127.51c-.03,1.89-.37,2.89-1.19,3.74-1.1,1.16-2.68,1.55-6.33,1.55-5.02,0-6.97-.3-8.22-1.34-1.31-1.07-1.95-2.95-1.95-5.88,0-3.38.82-5.36,2.59-6.33,1.22-.67,2.86-.91,6.24-.91,4.51,0,6.42.4,7.55,1.58.82.82,1.13,1.8,1.22,3.62h-2.31c-.06-2.65-1.28-3.26-6.46-3.26-5.45,0-6.46.85-6.46,5.45,0,2.53.55,3.9,1.83,4.48.88.43,2.59.61,5.54.61,4.57,0,5.57-.58,5.66-3.32h2.28Z"/>
    <path class="cls-2" d="M322.51,112.31v8.28h.18c.94-1.77,2.56-2.28,7.16-2.28,3.9,0,5.63.4,6.73,1.55.94.97,1.19,2.07,1.19,5.42v7.34h-2.22v-6.64c0-2.92-.12-3.68-.79-4.51-.73-.88-2.13-1.22-5.18-1.22-3.44,0-5.24.46-6.18,1.55-.76.85-.88,1.49-.88,4.17v6.64h-2.22v-20.31h2.22Z"/>
  </g>
</svg>